<svg width="288" height="73" viewBox="0 0 288 73" fill="none" xmlns="http://www.w3.org/2000/svg">
<path d="M98.0248 62.451C93.4947 62.451 89.4135 61.5124 85.7813 59.6351C82.1491 57.7169 79.2923 55.0642 77.2109 51.6768C75.1703 48.2486 74.15 44.3715 74.15 40.0455C74.15 35.7195 75.1703 31.8628 77.2109 28.4755C79.2923 25.0473 82.1491 22.3946 85.7813 20.5172C89.4135 18.5991 93.4947 17.64 98.0248 17.64C102.188 17.64 105.901 18.3746 109.166 19.8438C112.431 21.313 115.125 23.4352 117.247 26.2104L108.126 34.3523C105.473 31.0058 102.351 29.3325 98.7594 29.3325C95.7393 29.3325 93.311 30.312 91.4745 32.2709C89.638 34.1891 88.7197 36.7806 88.7197 40.0455C88.7197 43.3104 89.638 45.9224 91.4745 47.8813C93.311 49.7995 95.7393 50.7585 98.7594 50.7585C102.351 50.7585 105.473 49.0853 108.126 45.7387L117.247 53.8806C115.125 56.6558 112.431 58.778 109.166 60.2472C105.901 61.7164 102.188 62.451 98.0248 62.451Z" fill="white"/>
<path d="M124.051 48.3431C124.051 40.3006 129.933 33.4674 137.886 32.2709V61.4716H124.051V48.3431Z" fill="white"/>
<path d="M186.503 30.1896C186.503 34.6788 185.299 38.311 182.891 41.0862C180.483 43.8614 177.096 45.6775 172.729 46.5346L181.177 61.4716H178.912L170.586 46.8407C169.403 46.9631 168.199 47.0243 166.974 47.0243H153.629L150.752 61.4716H148.671L157.241 18.6195H171.933C176.545 18.6195 180.116 19.6398 182.646 21.6804C185.217 23.6801 186.503 26.5165 186.503 30.1896ZM166.913 45.1878C172.504 45.1878 176.81 43.9226 179.83 41.3923C182.891 38.862 184.421 35.1686 184.421 30.312C184.421 27.1695 183.34 24.7616 181.177 23.0883C179.014 21.3743 175.912 20.5172 171.872 20.5172H158.955L153.996 45.1878H166.913Z" fill="white"/>
<path d="M217.791 18.7827C223.178 18.7827 227.45 20.3336 230.606 23.4352C233.762 26.5369 235.34 30.7813 235.34 36.1684C235.34 36.9847 235.313 37.6104 235.259 38.0458L197.549 45.3102C197.821 49.8267 199.345 53.2821 202.12 55.6763C204.949 58.0706 208.949 59.2677 214.118 59.2677C217.22 59.2677 220.05 58.7508 222.607 57.7169C225.219 56.6286 227.396 55.1322 229.137 53.2276L230.443 55.105C228.702 57.1728 226.362 58.8052 223.423 60.0024C220.485 61.1451 217.302 61.7164 213.873 61.7164C207.942 61.7164 203.29 60.1928 199.916 57.1455C196.597 54.0439 194.937 49.7179 194.937 44.1675C194.937 39.4334 195.916 35.1345 197.875 31.2711C199.834 27.3532 202.555 24.3059 206.038 22.1293C209.52 19.8983 213.438 18.7827 217.791 18.7827ZM217.71 21.2314C214.009 21.2314 210.636 22.1565 207.588 24.0066C204.596 25.8567 202.201 28.4415 200.406 31.7608C198.664 35.0257 197.712 38.7532 197.549 42.9431L232.892 36.3317C233 31.7064 231.694 28.0333 228.974 25.3126C226.253 22.5918 222.498 21.2314 217.71 21.2314Z" fill="white"/>
<path d="M266.856 61.7164C262.734 61.7164 259.204 61.0022 256.266 59.5738C253.368 58.1046 251.164 56.064 249.654 53.4521C248.144 50.7994 247.389 47.7385 247.389 44.2695C247.389 39.617 248.43 35.3114 250.511 31.3527C252.634 27.394 255.654 24.2515 259.571 21.9252C263.489 19.5582 268.04 18.3746 273.223 18.3746C276.488 18.3746 279.385 18.8644 281.916 19.8438C284.446 20.8233 286.425 22.2109 287.854 24.0066L286.385 25.2922C283.528 21.9456 279.1 20.2724 273.1 20.2724C268.407 20.2724 264.265 21.3539 260.673 23.5169C257.082 25.6799 254.307 28.5775 252.348 32.2097C250.43 35.8419 249.471 39.8415 249.471 44.2083C249.471 48.9832 250.981 52.7787 254.001 55.5947C257.021 58.4107 261.367 59.8187 267.04 59.8187C273.039 59.8187 277.916 58.0638 281.671 54.554L282.895 56.0845C281.018 57.8393 278.671 59.2269 275.855 60.2472C273.08 61.2267 270.08 61.7164 266.856 61.7164Z" fill="white"/>
<circle cx="131" cy="25" r="7" fill="#F10909"/>
<path d="M36.3606 73C29.3836 73 23.1223 71.4536 17.5765 68.3607C12.1202 65.2679 7.8267 60.947 4.69602 55.3981C1.56534 49.7583 0 43.4361 0 36.4318C0 29.4274 1.56534 23.1508 4.69602 17.6019C7.8267 12.053 12.1202 7.73209 17.5765 4.63925C23.1223 1.54642 29.3836 0 36.3606 0C42.443 0 47.8547 1.22804 52.5954 3.68411C57.4256 6.04922 61.2271 9.5514 64 14.1907L56.8889 19.1028C54.5633 15.5551 51.6115 12.9171 48.0335 11.1888C44.4556 9.36947 40.5646 8.45981 36.3606 8.45981C31.2621 8.45981 26.6555 9.64236 22.5409 12.0075C18.5157 14.2816 15.3403 17.5564 13.0147 21.8318C10.7785 26.1072 9.66038 30.9738 9.66038 36.4318C9.66038 41.9807 10.7785 46.8928 13.0147 51.1682C15.3403 55.3526 18.5157 58.6274 22.5409 60.9925C26.6555 63.2667 31.2621 64.4037 36.3606 64.4037C40.5646 64.4037 44.4556 63.5396 48.0335 61.8112C51.6115 60.0829 54.5633 57.4449 56.8889 53.8972L64 58.8093C61.2271 63.4486 57.4256 66.9963 52.5954 69.4523C47.7652 71.8174 42.3536 73 36.3606 73Z" fill="white"/>
<circle cx="37" cy="37" r="16" fill="#F10909"/>
<path d="M26.5 32.5C31.4706 32.5 35.5 36.5294 35.5 41.5L9.5 41.5L9.5 32.5L26.5 32.5Z" fill="white"/>
</svg>
