<svg width="215" height="73" viewBox="0 0 215 73" fill="none" xmlns="http://www.w3.org/2000/svg">
<mask id="path-1-outside-1_1_29" maskUnits="userSpaceOnUse" x="-1" y="13" width="218" height="56" fill="black">
<rect fill="white" x="-1" y="13" width="218" height="56"/>
<path d="M25.6733 66.9795C21.1432 66.9795 17.0621 66.0408 13.4298 64.1635C9.79762 62.2453 6.94082 59.5926 4.85943 56.2052C2.81886 52.7771 1.79857 48.9 1.79857 44.574C1.79857 40.2479 2.81886 36.3913 4.85943 33.0039C6.94082 29.5757 9.79762 26.923 13.4298 25.0457C17.0621 23.1275 21.1432 22.1685 25.6733 22.1685C29.8361 22.1685 33.5499 22.9031 36.8148 24.3723C40.0798 25.8415 42.7733 27.9637 44.8955 30.7389L35.7741 38.8808C33.1214 35.5342 29.9993 33.8609 26.4079 33.8609C23.3879 33.8609 20.9596 34.8404 19.123 36.7994C17.2865 38.7175 16.3683 41.309 16.3683 44.574C16.3683 47.8389 17.2865 50.4508 19.123 52.4098C20.9596 54.3279 23.3879 55.287 26.4079 55.287C29.9993 55.287 33.1214 53.6137 35.7741 50.2672L44.8955 58.4091C42.7733 61.1842 40.0798 63.3064 36.8148 64.7757C33.5499 66.2449 29.8361 66.9795 25.6733 66.9795ZM51.6992 32.5142H65.5343V66H51.6992V32.5142ZM58.6168 29.8206C56.1273 29.8206 54.1071 29.1676 52.5563 27.8617C51.0462 26.5149 50.2912 24.8212 50.2912 22.7806C50.2912 20.74 51.0462 19.0668 52.5563 17.7608C54.1071 16.414 56.1273 15.7406 58.6168 15.7406C61.1471 15.7406 63.1673 16.3732 64.6773 17.6384C66.1873 18.9035 66.9423 20.536 66.9423 22.5358C66.9423 24.658 66.1873 26.4128 64.6773 27.8004C63.1673 29.1472 61.1471 29.8206 58.6168 29.8206ZM113.906 34.5343C113.906 39.1052 112.682 42.7783 110.233 45.5534C107.826 48.2878 104.418 50.0427 100.01 50.8181L108.581 66H107.173L98.7246 51.063C97.5411 51.2262 96.1331 51.3079 94.5006 51.3079H80.7879L77.8495 66H76.6252L85.1956 23.1479H99.5816C104.112 23.1479 107.622 24.1478 110.111 26.1476C112.641 28.1065 113.906 30.9021 113.906 34.5343ZM94.4394 50.1447C100.275 50.1447 104.765 48.8184 107.907 46.1656C111.09 43.5129 112.682 39.6358 112.682 34.5343C112.682 31.2694 111.56 28.7595 109.315 27.0046C107.071 25.2089 103.846 24.3111 99.6429 24.3111H86.1751L81.0328 50.1447H94.4394ZM145.157 23.556C150.544 23.556 154.761 25.0797 157.809 28.1269C160.856 31.1742 162.38 35.3642 162.38 40.6969L162.298 42.411L124.18 49.6754C124.343 54.5184 125.894 58.2458 128.832 60.8578C131.771 63.4153 135.934 64.694 141.321 64.694C144.477 64.694 147.388 64.1499 150.054 63.0616C152.721 61.9189 154.925 60.368 156.666 58.4091L157.645 59.4702C155.904 61.5379 153.564 63.1976 150.626 64.4492C147.742 65.6463 144.613 66.2449 141.239 66.2449C135.362 66.2449 130.791 64.7484 127.527 61.7556C124.262 58.7083 122.629 54.4095 122.629 48.8592C122.629 44.125 123.609 39.8262 125.568 35.9627C127.527 32.0992 130.22 29.0792 133.648 26.9026C137.076 24.6716 140.913 23.556 145.157 23.556ZM145.157 25.1069C141.294 25.1069 137.784 26.1136 134.628 28.1269C131.472 30.0859 128.969 32.8339 127.118 36.3709C125.268 39.8534 124.289 43.7985 124.18 48.2062L160.91 41.1866C161.074 36.2892 159.74 32.3985 156.911 29.5145C154.081 26.5761 150.163 25.1069 145.157 25.1069ZM194.085 66.1837C190.004 66.1837 186.514 65.4695 183.617 64.041C180.719 62.6126 178.515 60.5925 177.005 57.9805C175.536 55.3686 174.802 52.3281 174.802 48.8592C174.802 44.2475 175.842 39.9623 177.924 36.0036C180.005 32.0448 183.005 28.8819 186.923 26.5149C190.84 24.1478 195.391 22.9643 200.574 22.9643C203.757 22.9643 206.594 23.4336 209.083 24.3723C211.573 25.3109 213.532 26.6373 214.96 28.3514L214.103 29.1472C211.124 25.8007 206.573 24.1274 200.452 24.1274C195.595 24.1274 191.31 25.2497 187.596 27.4944C183.923 29.6982 181.066 32.6978 179.026 36.4933C177.026 40.2479 176.026 44.3699 176.026 48.8592C176.026 53.7974 177.577 57.7357 180.678 60.6741C183.821 63.5717 188.331 65.0205 194.207 65.0205C200.411 65.0205 205.39 63.2656 209.144 59.7558L209.879 60.7353C208.083 62.4086 205.798 63.735 203.023 64.7144C200.248 65.6939 197.268 66.1837 194.085 66.1837Z"/>
</mask>
<path d="M25.6733 66.9795C21.1432 66.9795 17.0621 66.0408 13.4298 64.1635C9.79762 62.2453 6.94082 59.5926 4.85943 56.2052C2.81886 52.7771 1.79857 48.9 1.79857 44.574C1.79857 40.2479 2.81886 36.3913 4.85943 33.0039C6.94082 29.5757 9.79762 26.923 13.4298 25.0457C17.0621 23.1275 21.1432 22.1685 25.6733 22.1685C29.8361 22.1685 33.5499 22.9031 36.8148 24.3723C40.0798 25.8415 42.7733 27.9637 44.8955 30.7389L35.7741 38.8808C33.1214 35.5342 29.9993 33.8609 26.4079 33.8609C23.3879 33.8609 20.9596 34.8404 19.123 36.7994C17.2865 38.7175 16.3683 41.309 16.3683 44.574C16.3683 47.8389 17.2865 50.4508 19.123 52.4098C20.9596 54.3279 23.3879 55.287 26.4079 55.287C29.9993 55.287 33.1214 53.6137 35.7741 50.2672L44.8955 58.4091C42.7733 61.1842 40.0798 63.3064 36.8148 64.7757C33.5499 66.2449 29.8361 66.9795 25.6733 66.9795ZM51.6992 32.5142H65.5343V66H51.6992V32.5142ZM58.6168 29.8206C56.1273 29.8206 54.1071 29.1676 52.5563 27.8617C51.0462 26.5149 50.2912 24.8212 50.2912 22.7806C50.2912 20.74 51.0462 19.0668 52.5563 17.7608C54.1071 16.414 56.1273 15.7406 58.6168 15.7406C61.1471 15.7406 63.1673 16.3732 64.6773 17.6384C66.1873 18.9035 66.9423 20.536 66.9423 22.5358C66.9423 24.658 66.1873 26.4128 64.6773 27.8004C63.1673 29.1472 61.1471 29.8206 58.6168 29.8206ZM113.906 34.5343C113.906 39.1052 112.682 42.7783 110.233 45.5534C107.826 48.2878 104.418 50.0427 100.01 50.8181L108.581 66H107.173L98.7246 51.063C97.5411 51.2262 96.1331 51.3079 94.5006 51.3079H80.7879L77.8495 66H76.6252L85.1956 23.1479H99.5816C104.112 23.1479 107.622 24.1478 110.111 26.1476C112.641 28.1065 113.906 30.9021 113.906 34.5343ZM94.4394 50.1447C100.275 50.1447 104.765 48.8184 107.907 46.1656C111.09 43.5129 112.682 39.6358 112.682 34.5343C112.682 31.2694 111.56 28.7595 109.315 27.0046C107.071 25.2089 103.846 24.3111 99.6429 24.3111H86.1751L81.0328 50.1447H94.4394ZM145.157 23.556C150.544 23.556 154.761 25.0797 157.809 28.1269C160.856 31.1742 162.38 35.3642 162.38 40.6969L162.298 42.411L124.18 49.6754C124.343 54.5184 125.894 58.2458 128.832 60.8578C131.771 63.4153 135.934 64.694 141.321 64.694C144.477 64.694 147.388 64.1499 150.054 63.0616C152.721 61.9189 154.925 60.368 156.666 58.4091L157.645 59.4702C155.904 61.5379 153.564 63.1976 150.626 64.4492C147.742 65.6463 144.613 66.2449 141.239 66.2449C135.362 66.2449 130.791 64.7484 127.527 61.7556C124.262 58.7083 122.629 54.4095 122.629 48.8592C122.629 44.125 123.609 39.8262 125.568 35.9627C127.527 32.0992 130.22 29.0792 133.648 26.9026C137.076 24.6716 140.913 23.556 145.157 23.556ZM145.157 25.1069C141.294 25.1069 137.784 26.1136 134.628 28.1269C131.472 30.0859 128.969 32.8339 127.118 36.3709C125.268 39.8534 124.289 43.7985 124.18 48.2062L160.91 41.1866C161.074 36.2892 159.74 32.3985 156.911 29.5145C154.081 26.5761 150.163 25.1069 145.157 25.1069ZM194.085 66.1837C190.004 66.1837 186.514 65.4695 183.617 64.041C180.719 62.6126 178.515 60.5925 177.005 57.9805C175.536 55.3686 174.802 52.3281 174.802 48.8592C174.802 44.2475 175.842 39.9623 177.924 36.0036C180.005 32.0448 183.005 28.8819 186.923 26.5149C190.84 24.1478 195.391 22.9643 200.574 22.9643C203.757 22.9643 206.594 23.4336 209.083 24.3723C211.573 25.3109 213.532 26.6373 214.96 28.3514L214.103 29.1472C211.124 25.8007 206.573 24.1274 200.452 24.1274C195.595 24.1274 191.31 25.2497 187.596 27.4944C183.923 29.6982 181.066 32.6978 179.026 36.4933C177.026 40.2479 176.026 44.3699 176.026 48.8592C176.026 53.7974 177.577 57.7357 180.678 60.6741C183.821 63.5717 188.331 65.0205 194.207 65.0205C200.411 65.0205 205.39 63.2656 209.144 59.7558L209.879 60.7353C208.083 62.4086 205.798 63.735 203.023 64.7144C200.248 65.6939 197.268 66.1837 194.085 66.1837Z" fill="black" fill-opacity="0.17"/>
<path d="M25.6733 66.9795C21.1432 66.9795 17.0621 66.0408 13.4298 64.1635C9.79762 62.2453 6.94082 59.5926 4.85943 56.2052C2.81886 52.7771 1.79857 48.9 1.79857 44.574C1.79857 40.2479 2.81886 36.3913 4.85943 33.0039C6.94082 29.5757 9.79762 26.923 13.4298 25.0457C17.0621 23.1275 21.1432 22.1685 25.6733 22.1685C29.8361 22.1685 33.5499 22.9031 36.8148 24.3723C40.0798 25.8415 42.7733 27.9637 44.8955 30.7389L35.7741 38.8808C33.1214 35.5342 29.9993 33.8609 26.4079 33.8609C23.3879 33.8609 20.9596 34.8404 19.123 36.7994C17.2865 38.7175 16.3683 41.309 16.3683 44.574C16.3683 47.8389 17.2865 50.4508 19.123 52.4098C20.9596 54.3279 23.3879 55.287 26.4079 55.287C29.9993 55.287 33.1214 53.6137 35.7741 50.2672L44.8955 58.4091C42.7733 61.1842 40.0798 63.3064 36.8148 64.7757C33.5499 66.2449 29.8361 66.9795 25.6733 66.9795ZM51.6992 32.5142H65.5343V66H51.6992V32.5142ZM58.6168 29.8206C56.1273 29.8206 54.1071 29.1676 52.5563 27.8617C51.0462 26.5149 50.2912 24.8212 50.2912 22.7806C50.2912 20.74 51.0462 19.0668 52.5563 17.7608C54.1071 16.414 56.1273 15.7406 58.6168 15.7406C61.1471 15.7406 63.1673 16.3732 64.6773 17.6384C66.1873 18.9035 66.9423 20.536 66.9423 22.5358C66.9423 24.658 66.1873 26.4128 64.6773 27.8004C63.1673 29.1472 61.1471 29.8206 58.6168 29.8206ZM113.906 34.5343C113.906 39.1052 112.682 42.7783 110.233 45.5534C107.826 48.2878 104.418 50.0427 100.01 50.8181L108.581 66H107.173L98.7246 51.063C97.5411 51.2262 96.1331 51.3079 94.5006 51.3079H80.7879L77.8495 66H76.6252L85.1956 23.1479H99.5816C104.112 23.1479 107.622 24.1478 110.111 26.1476C112.641 28.1065 113.906 30.9021 113.906 34.5343ZM94.4394 50.1447C100.275 50.1447 104.765 48.8184 107.907 46.1656C111.09 43.5129 112.682 39.6358 112.682 34.5343C112.682 31.2694 111.56 28.7595 109.315 27.0046C107.071 25.2089 103.846 24.3111 99.6429 24.3111H86.1751L81.0328 50.1447H94.4394ZM145.157 23.556C150.544 23.556 154.761 25.0797 157.809 28.1269C160.856 31.1742 162.38 35.3642 162.38 40.6969L162.298 42.411L124.18 49.6754C124.343 54.5184 125.894 58.2458 128.832 60.8578C131.771 63.4153 135.934 64.694 141.321 64.694C144.477 64.694 147.388 64.1499 150.054 63.0616C152.721 61.9189 154.925 60.368 156.666 58.4091L157.645 59.4702C155.904 61.5379 153.564 63.1976 150.626 64.4492C147.742 65.6463 144.613 66.2449 141.239 66.2449C135.362 66.2449 130.791 64.7484 127.527 61.7556C124.262 58.7083 122.629 54.4095 122.629 48.8592C122.629 44.125 123.609 39.8262 125.568 35.9627C127.527 32.0992 130.22 29.0792 133.648 26.9026C137.076 24.6716 140.913 23.556 145.157 23.556ZM145.157 25.1069C141.294 25.1069 137.784 26.1136 134.628 28.1269C131.472 30.0859 128.969 32.8339 127.118 36.3709C125.268 39.8534 124.289 43.7985 124.18 48.2062L160.91 41.1866C161.074 36.2892 159.74 32.3985 156.911 29.5145C154.081 26.5761 150.163 25.1069 145.157 25.1069ZM194.085 66.1837C190.004 66.1837 186.514 65.4695 183.617 64.041C180.719 62.6126 178.515 60.5925 177.005 57.9805C175.536 55.3686 174.802 52.3281 174.802 48.8592C174.802 44.2475 175.842 39.9623 177.924 36.0036C180.005 32.0448 183.005 28.8819 186.923 26.5149C190.84 24.1478 195.391 22.9643 200.574 22.9643C203.757 22.9643 206.594 23.4336 209.083 24.3723C211.573 25.3109 213.532 26.6373 214.96 28.3514L214.103 29.1472C211.124 25.8007 206.573 24.1274 200.452 24.1274C195.595 24.1274 191.31 25.2497 187.596 27.4944C183.923 29.6982 181.066 32.6978 179.026 36.4933C177.026 40.2479 176.026 44.3699 176.026 48.8592C176.026 53.7974 177.577 57.7357 180.678 60.6741C183.821 63.5717 188.331 65.0205 194.207 65.0205C200.411 65.0205 205.39 63.2656 209.144 59.7558L209.879 60.7353C208.083 62.4086 205.798 63.735 203.023 64.7144C200.248 65.6939 197.268 66.1837 194.085 66.1837Z" fill="black" fill-opacity="0.29"/>
<path d="M13.4298 64.1635L12.4959 65.932C12.5011 65.9348 12.5063 65.9375 12.5115 65.9402L13.4298 64.1635ZM4.85943 56.2052L3.14085 57.2282C3.14564 57.2363 3.1505 57.2443 3.15541 57.2523L4.85943 56.2052ZM4.85943 33.0039L3.14985 31.9659L3.14627 31.9719L4.85943 33.0039ZM13.4298 25.0457L14.3481 26.8224C14.3534 26.8197 14.3586 26.817 14.3638 26.8142L13.4298 25.0457ZM36.8148 24.3723L35.9941 26.1961L35.9941 26.1961L36.8148 24.3723ZM44.8955 30.7389L46.2273 32.2309C47.0075 31.5345 47.1195 30.3547 46.4842 29.524L44.8955 30.7389ZM35.7741 38.8808L34.2068 40.1231C34.5489 40.5547 35.0539 40.8261 35.6025 40.8734C36.1512 40.9206 36.6951 40.7395 37.106 40.3728L35.7741 38.8808ZM19.123 36.7994L20.5677 38.1825C20.5725 38.1775 20.5773 38.1724 20.5821 38.1673L19.123 36.7994ZM19.123 52.4098L17.664 53.7777C17.6688 53.7828 17.6736 53.7879 17.6784 53.7929L19.123 52.4098ZM35.7741 50.2672L37.106 48.7751C36.6951 48.4084 36.1512 48.2273 35.6025 48.2745C35.0539 48.3218 34.5489 48.5932 34.2068 49.0248L35.7741 50.2672ZM44.8955 58.4091L46.4842 59.624C47.1195 58.7933 47.0075 57.6134 46.2273 56.917L44.8955 58.4091ZM36.8148 64.7757L35.9941 62.9518L35.9941 62.9518L36.8148 64.7757ZM25.6733 64.9795C21.4277 64.9795 17.6669 64.1021 14.3481 62.3868L12.5115 65.9402C16.4572 67.9795 20.8587 68.9795 25.6733 68.9795V64.9795ZM14.3638 62.3949C11.0372 60.6382 8.45096 58.23 6.56345 55.1582L3.15541 57.2523C5.43067 60.9552 8.55802 63.8525 12.4959 65.932L14.3638 62.3949ZM6.57802 55.1823C4.73706 52.0895 3.79857 48.5713 3.79857 44.574H-0.20143C-0.20143 49.2287 0.900655 53.4647 3.14085 57.2282L6.57802 55.1823ZM3.79857 44.574C3.79857 40.5763 4.7371 37.0829 6.57259 34.0359L3.14627 31.9719C0.900618 35.6997 -0.20143 39.9195 -0.20143 44.574H3.79857ZM6.56901 34.0419C8.45568 30.9344 11.0359 28.5343 14.3481 26.8224L12.5115 23.2689C8.55937 25.3116 5.42596 28.2171 3.14986 31.9659L6.56901 34.0419ZM14.3638 26.8142C17.6795 25.0632 21.4346 24.1685 25.6733 24.1685V20.1685C20.8518 20.1685 16.4447 21.1918 12.4959 23.2771L14.3638 26.8142ZM25.6733 24.1685C29.5988 24.1685 33.0259 24.8604 35.9941 26.1961L37.6356 22.5484C34.074 20.9457 30.0733 20.1685 25.6733 20.1685V24.1685ZM35.9941 26.1961C38.9643 27.5327 41.3913 29.4488 43.3068 31.9538L46.4842 29.524C44.1554 26.4785 41.1952 24.1503 37.6356 22.5484L35.9941 26.1961ZM43.5637 29.2468L34.4423 37.3887L37.106 40.3728L46.2273 32.2309L43.5637 29.2468ZM37.3415 37.6384C34.3894 33.9142 30.7282 31.8609 26.4079 31.8609V35.8609C29.2704 35.8609 31.8534 37.1542 34.2068 40.1231L37.3415 37.6384ZM26.4079 31.8609C22.9111 31.8609 19.9276 33.0169 17.664 35.4315L20.5821 38.1673C21.9915 36.6639 23.8646 35.8609 26.4079 35.8609V31.8609ZM17.6784 35.4162C15.4077 37.7879 14.3683 40.9184 14.3683 44.574H18.3683C18.3683 41.6997 19.1654 39.6471 20.5677 38.1825L17.6784 35.4162ZM14.3683 44.574C14.3683 48.2312 15.4081 51.3714 17.664 53.7777L20.5821 51.0419C19.165 49.5303 18.3683 47.4465 18.3683 44.574H14.3683ZM17.6784 53.7929C19.9454 56.1607 22.9244 57.287 26.4079 57.287V53.287C23.8513 53.287 21.9737 52.4952 20.5677 51.0266L17.6784 53.7929ZM26.4079 57.287C30.7282 57.287 34.3894 55.2337 37.3415 51.5096L34.2068 49.0248C31.8534 51.9937 29.2704 53.287 26.4079 53.287V57.287ZM34.4423 51.7592L43.5637 59.9011L46.2273 56.917L37.106 48.7751L34.4423 51.7592ZM43.3068 57.1942C41.3913 59.6991 38.9643 61.6152 35.9941 62.9518L37.6356 66.5995C41.1952 64.9977 44.1554 62.6694 46.4842 59.624L43.3068 57.1942ZM35.9941 62.9518C33.0259 64.2875 29.5988 64.9795 25.6733 64.9795V68.9795C30.0733 68.9795 34.074 68.2022 37.6356 66.5995L35.9941 62.9518ZM51.6992 32.5142V30.5142C50.5947 30.5142 49.6992 31.4096 49.6992 32.5142H51.6992ZM65.5343 32.5142H67.5343C67.5343 31.4096 66.6389 30.5142 65.5343 30.5142V32.5142ZM65.5343 66V68C66.6389 68 67.5343 67.1046 67.5343 66H65.5343ZM51.6992 66H49.6992C49.6992 67.1046 50.5947 68 51.6992 68V66ZM52.5563 27.8617L51.225 29.3542C51.2392 29.3669 51.2535 29.3793 51.268 29.3915L52.5563 27.8617ZM52.5563 17.7608L53.8646 19.2735L53.8676 19.2709L52.5563 17.7608ZM64.6773 17.6384L63.3928 19.1714L63.3929 19.1714L64.6773 17.6384ZM64.6773 27.8004L66.0085 29.293C66.0159 29.2864 66.0232 29.2798 66.0305 29.2731L64.6773 27.8004ZM51.6992 34.5142H65.5343V30.5142H51.6992V34.5142ZM63.5343 32.5142V66H67.5343V32.5142H63.5343ZM65.5343 64H51.6992V68H65.5343V64ZM53.6992 66V32.5142H49.6992V66H53.6992ZM58.6168 27.8206C56.4874 27.8206 54.9579 27.2694 53.8445 26.3318L51.268 29.3915C53.2563 31.0658 55.7672 31.8206 58.6168 31.8206V27.8206ZM53.8875 26.3691C52.8071 25.4054 52.2912 24.2566 52.2912 22.7806H48.2912C48.2912 25.3858 49.2854 27.6243 51.225 29.3542L53.8875 26.3691ZM52.2912 22.7806C52.2912 21.3061 52.8048 20.1901 53.8646 19.2735L51.248 16.2481C49.2877 17.9435 48.2912 20.174 48.2912 22.7806H52.2912ZM53.8676 19.2709C54.9814 18.3037 56.5024 17.7406 58.6168 17.7406V13.7406C55.7522 13.7406 53.2328 14.5244 51.2449 16.2507L53.8676 19.2709ZM58.6168 17.7406C60.8137 17.7406 62.3351 18.2852 63.3928 19.1714L65.9617 16.1053C63.9994 14.4613 61.4805 13.7406 58.6168 13.7406V17.7406ZM63.3929 19.1714C64.4415 20.05 64.9423 21.1173 64.9423 22.5358H68.9423C68.9423 19.9546 67.9332 17.7571 65.9617 16.1053L63.3929 19.1714ZM64.9423 22.5358C64.9423 24.1203 64.4059 25.3336 63.324 26.3278L66.0305 29.2731C67.9687 27.4921 68.9423 25.1956 68.9423 22.5358H64.9423ZM63.3461 26.3078C62.2877 27.2518 60.7838 27.8206 58.6168 27.8206V31.8206C61.5104 31.8206 64.0468 31.0427 66.0085 29.293L63.3461 26.3078ZM110.233 45.5534L108.734 44.2302L108.732 44.2317L110.233 45.5534ZM100.01 50.8181L99.6636 48.8484C99.0242 48.9609 98.4792 49.3767 98.2018 49.9638C97.9245 50.5508 97.9493 51.2359 98.2685 51.8013L100.01 50.8181ZM108.581 66V68C109.292 68 109.949 67.6225 110.308 67.0084C110.666 66.3943 110.672 65.636 110.322 65.0168L108.581 66ZM107.173 66L105.432 66.9846C105.787 67.6121 106.452 68 107.173 68V66ZM98.7246 51.063L100.465 50.0784C100.062 49.3648 99.2635 48.9697 98.4513 49.0817L98.7246 51.063ZM80.7879 51.3079V49.3079C79.8346 49.3079 79.0138 49.9808 78.8268 50.9156L80.7879 51.3079ZM77.8495 66V68C78.8029 68 79.6237 67.3271 79.8107 66.3922L77.8495 66ZM76.6252 66L74.664 65.6078C74.5465 66.1953 74.6986 66.8046 75.0785 67.268C75.4584 67.7314 76.026 68 76.6252 68V66ZM85.1956 23.1479V21.1479C84.2422 21.1479 83.4214 21.8208 83.2344 22.7557L85.1956 23.1479ZM110.111 26.1476L108.858 27.7068C108.868 27.7143 108.877 27.7217 108.887 27.729L110.111 26.1476ZM107.907 46.1656L106.627 44.6291L106.617 44.6373L107.907 46.1656ZM109.315 27.0046L108.066 28.5664C108.072 28.571 108.077 28.5756 108.083 28.5802L109.315 27.0046ZM86.1751 24.3111V22.3111C85.221 22.3111 84.3998 22.9849 84.2135 23.9206L86.1751 24.3111ZM81.0328 50.1447L79.0713 49.7543C78.9544 50.3416 79.1068 50.9505 79.4867 51.4134C79.8666 51.8764 80.4339 52.1447 81.0328 52.1447V50.1447ZM111.906 34.5343C111.906 38.7371 110.789 41.9009 108.734 44.2302L111.733 46.8767C114.575 43.6556 115.906 39.4733 115.906 34.5343H111.906ZM108.732 44.2317C106.688 46.553 103.729 48.1331 99.6636 48.8484L100.357 52.7879C105.106 51.9523 108.963 50.0226 111.734 46.8752L108.732 44.2317ZM98.2685 51.8013L106.839 66.9832L110.322 65.0168L101.752 49.8349L98.2685 51.8013ZM108.581 64H107.173V68H108.581V64ZM108.913 65.0154L100.465 50.0784L96.9837 52.0476L105.432 66.9846L108.913 65.0154ZM98.4513 49.0817C97.3843 49.2289 96.0723 49.3079 94.5006 49.3079V53.3079C96.1939 53.3079 97.6978 53.2236 98.9979 53.0442L98.4513 49.0817ZM94.5006 49.3079H80.7879V53.3079H94.5006V49.3079ZM78.8268 50.9156L75.8884 65.6078L79.8107 66.3922L82.7491 51.7001L78.8268 50.9156ZM77.8495 64H76.6252V68H77.8495V64ZM78.5863 66.3922L87.1567 23.5402L83.2344 22.7557L74.664 65.6078L78.5863 66.3922ZM85.1956 25.1479H99.5816V21.1479H85.1956V25.1479ZM99.5816 25.1479C103.843 25.1479 106.847 26.0906 108.858 27.7068L111.364 24.5883C108.396 22.205 104.38 21.1479 99.5816 21.1479V25.1479ZM108.887 27.729C110.857 29.2546 111.906 31.4258 111.906 34.5343H115.906C115.906 30.3784 114.425 26.9585 111.335 24.5661L108.887 27.729ZM94.4394 52.1447C100.553 52.1447 105.569 50.757 109.197 47.6939L106.617 44.6373C103.961 46.8797 99.9982 48.1447 94.4394 48.1447V52.1447ZM109.188 47.7021C112.931 44.5827 114.682 40.0792 114.682 34.5343H110.682C110.682 39.1923 109.25 42.443 106.627 44.6292L109.188 47.7021ZM114.682 34.5343C114.682 30.7556 113.351 27.6214 110.547 25.429L108.083 28.5802C109.768 29.8976 110.682 31.7832 110.682 34.5343H114.682ZM110.565 25.4429C107.834 23.2583 104.097 22.3111 99.6429 22.3111V26.3111C103.595 26.3111 106.307 27.1595 108.066 28.5664L110.565 25.4429ZM99.6429 22.3111H86.1751V26.3111H99.6429V22.3111ZM84.2135 23.9206L79.0713 49.7543L82.9943 50.5352L88.1366 24.7015L84.2135 23.9206ZM81.0328 52.1447H94.4394V48.1447H81.0328V52.1447ZM157.809 28.1269L159.223 26.7127L159.223 26.7127L157.809 28.1269ZM162.38 40.6969L164.377 40.792C164.379 40.7603 164.38 40.7286 164.38 40.6969H162.38ZM162.298 42.411L162.672 44.3756C163.58 44.2025 164.252 43.4295 164.296 42.5061L162.298 42.411ZM124.18 49.6754L123.806 47.7108C122.837 47.8953 122.148 48.7577 122.181 49.7428L124.18 49.6754ZM128.832 60.8578L127.504 62.3526C127.509 62.3572 127.514 62.3618 127.519 62.3664L128.832 60.8578ZM150.054 63.0616L150.81 64.9133C150.821 64.9089 150.832 64.9044 150.842 64.8999L150.054 63.0616ZM156.666 58.4091L158.136 57.0525C157.752 56.6375 157.212 56.4038 156.647 56.4091C156.082 56.4145 155.546 56.6582 155.171 57.0803L156.666 58.4091ZM157.645 59.4702L159.175 60.7584C159.824 59.9876 159.799 58.8541 159.115 58.1136L157.645 59.4702ZM150.626 64.4492L151.393 66.2963C151.398 66.294 151.404 66.2916 151.41 66.2892L150.626 64.4492ZM127.527 61.7556L126.162 63.2177C126.166 63.2218 126.171 63.2259 126.175 63.2299L127.527 61.7556ZM125.568 35.9627L123.784 35.0583L123.784 35.0583L125.568 35.9627ZM133.648 26.9026L134.72 28.591C134.727 28.587 134.733 28.5829 134.739 28.5789L133.648 26.9026ZM134.628 28.1269L135.682 29.8262C135.689 29.8219 135.696 29.8175 135.703 29.8131L134.628 28.1269ZM127.118 36.3709L128.885 37.3092L128.891 37.2978L127.118 36.3709ZM124.18 48.2062L122.181 48.1568C122.166 48.7615 122.425 49.3404 122.886 49.7316C123.348 50.1228 123.961 50.2842 124.555 50.1706L124.18 48.2062ZM160.91 41.1866L161.286 43.1511C162.204 42.9756 162.878 42.1875 162.909 41.2532L160.91 41.1866ZM156.911 29.5145L155.47 30.9018C155.474 30.9063 155.479 30.9108 155.483 30.9152L156.911 29.5145ZM145.157 25.556C150.154 25.556 153.811 26.9576 156.394 29.5411L159.223 26.7127C155.712 23.2017 150.935 21.556 145.157 21.556V25.556ZM156.394 29.5411C158.982 32.1285 160.38 35.7611 160.38 40.6969H164.38C164.38 34.9672 162.73 30.2199 159.223 26.7127L156.394 29.5411ZM160.382 40.6017L160.3 42.3158L164.296 42.5061L164.377 40.792L160.382 40.6017ZM161.923 40.4463L123.806 47.7108L124.554 51.64L162.672 44.3756L161.923 40.4463ZM122.181 49.7428C122.358 54.9971 124.064 59.2951 127.504 62.3526L130.161 59.3629C127.724 57.1965 126.328 54.0397 126.179 49.608L122.181 49.7428ZM127.519 62.3664C130.94 65.3439 135.636 66.694 141.321 66.694V62.694C136.232 62.694 132.601 61.4866 130.146 59.3491L127.519 62.3664ZM141.321 66.694C144.711 66.694 147.882 66.1085 150.81 64.9133L149.299 61.2099C146.894 62.1912 144.243 62.694 141.321 62.694V66.694ZM150.842 64.8999C153.75 63.6538 156.204 61.939 158.161 59.7378L155.171 57.0803C153.645 58.797 151.692 60.1839 149.267 61.2233L150.842 64.8999ZM155.196 59.7656L156.176 60.8267L159.115 58.1136L158.136 57.0525L155.196 59.7656ZM156.116 58.1819C154.61 59.9699 152.544 61.4583 149.842 62.6091L151.41 66.2892C154.584 64.937 157.198 63.106 159.175 60.7584L156.116 58.1819ZM149.859 62.602C147.237 63.6904 144.371 64.2449 141.239 64.2449V68.2449C144.855 68.2449 148.247 67.6022 151.393 66.2963L149.859 62.602ZM141.239 64.2449C135.696 64.2449 131.667 62.8379 128.878 60.2813L126.175 63.2299C129.916 66.659 135.029 68.2449 141.239 68.2449V64.2449ZM128.891 60.2935C126.126 57.7127 124.629 53.9992 124.629 48.8592H120.629C120.629 54.8199 122.397 59.704 126.162 63.2177L128.891 60.2935ZM124.629 48.8592C124.629 44.4096 125.547 40.425 127.351 36.8672L123.784 35.0583C121.67 39.2274 120.629 43.8405 120.629 48.8592H124.629ZM127.351 36.8672C129.159 33.302 131.616 30.5621 134.72 28.591L132.576 25.2142C128.824 27.5963 125.894 30.8965 123.784 35.0583L127.351 36.8672ZM134.739 28.5789C137.83 26.5673 141.285 25.556 145.157 25.556V21.556C140.541 21.556 136.323 22.7758 132.557 25.2263L134.739 28.5789ZM145.157 23.1069C140.925 23.1069 137.04 24.2156 133.552 26.4408L135.703 29.8131C138.527 28.0115 141.662 27.1069 145.157 27.1069V23.1069ZM133.573 26.4276C130.09 28.5893 127.349 31.6144 125.346 35.4439L128.891 37.2978C130.588 34.0533 132.853 31.5825 135.682 29.8262L133.573 26.4276ZM125.352 35.4325C123.34 39.2203 122.296 43.4758 122.181 48.1568L126.179 48.2556C126.281 44.1213 127.197 40.4866 128.885 37.3092L125.352 35.4325ZM124.555 50.1706L161.286 43.1511L160.535 39.2222L123.805 46.2417L124.555 50.1706ZM162.909 41.2532C163.087 35.9342 161.631 31.4694 158.338 28.1138L155.483 30.9152C157.85 33.3277 159.061 36.6442 158.911 41.12L162.909 41.2532ZM158.351 28.1272C155.062 24.7114 150.575 23.1069 145.157 23.1069V27.1069C149.752 27.1069 153.1 28.4408 155.47 30.9018L158.351 28.1272ZM183.617 64.041L182.733 65.8349L182.733 65.8349L183.617 64.041ZM177.005 57.9805L175.262 58.9611C175.266 58.9679 175.27 58.9747 175.274 58.9815L177.005 57.9805ZM177.924 36.0036L179.694 36.9343L179.694 36.9343L177.924 36.0036ZM186.923 26.5149L185.888 24.803L185.888 24.803L186.923 26.5149ZM214.96 28.3514L216.321 29.817C217.1 29.0937 217.177 27.8876 216.496 27.071L214.96 28.3514ZM214.103 29.1472L212.609 30.4771C212.967 30.8787 213.471 31.1194 214.008 31.145C214.545 31.1705 215.07 30.9787 215.464 30.6128L214.103 29.1472ZM187.596 27.4944L188.625 29.2093L188.63 29.206L187.596 27.4944ZM179.026 36.4933L177.264 35.5462L177.26 35.5531L179.026 36.4933ZM180.678 60.6741L179.303 62.126C179.309 62.1322 179.316 62.1383 179.323 62.1444L180.678 60.6741ZM209.144 59.7558L210.744 58.5558C210.404 58.1014 209.886 57.8134 209.32 57.7635C208.754 57.7137 208.194 57.9069 207.779 58.2948L209.144 59.7558ZM209.879 60.7353L211.242 62.1985C211.99 61.5017 212.092 60.3531 211.479 59.5353L209.879 60.7353ZM203.023 64.7144L202.357 62.8285L202.357 62.8285L203.023 64.7144ZM194.085 64.1837C190.232 64.1837 187.061 63.5091 184.501 62.2472L182.733 65.8349C185.968 67.4298 189.776 68.1837 194.085 68.1837V64.1837ZM184.501 62.2472C181.932 60.9806 180.035 59.2247 178.737 56.9795L175.274 58.9815C176.996 61.9602 179.507 64.2447 182.733 65.8349L184.501 62.2472ZM178.749 57C177.473 54.7317 176.802 52.0393 176.802 48.8592H172.802C172.802 52.617 173.6 56.0055 175.262 58.9611L178.749 57ZM176.802 48.8592C176.802 44.5613 177.768 40.5969 179.694 36.9343L176.153 35.0728C173.916 39.3277 172.802 43.9337 172.802 48.8592H176.802ZM179.694 36.9343C181.602 33.306 184.343 30.41 187.957 28.2267L185.888 24.803C181.666 27.3539 178.408 30.7837 176.153 35.0728L179.694 36.9343ZM187.957 28.2267C191.523 26.0721 195.706 24.9643 200.574 24.9643V20.9643C195.076 20.9643 190.158 22.2235 185.888 24.803L187.957 28.2267ZM200.574 24.9643C203.562 24.9643 206.153 25.4049 208.378 26.2437L209.789 22.5009C207.034 21.4623 203.952 20.9643 200.574 20.9643V24.9643ZM208.378 26.2437C210.606 27.0839 212.255 28.23 213.424 29.6318L216.496 27.071C214.808 25.0446 212.539 23.538 209.789 22.5009L208.378 26.2437ZM213.599 26.8858L212.742 27.6816L215.464 30.6128L216.321 29.817L213.599 26.8858ZM215.597 27.8174C212.114 23.905 206.926 22.1274 200.452 22.1274V26.1274C206.221 26.1274 210.134 27.6964 212.609 30.4771L215.597 27.8174ZM200.452 22.1274C195.275 22.1274 190.623 23.3276 186.561 25.7827L188.63 29.206C191.996 27.1718 195.915 26.1274 200.452 26.1274V22.1274ZM186.567 25.7794C182.583 28.1697 179.474 31.4355 177.264 35.5462L180.787 37.4404C182.658 33.9601 185.263 31.2267 188.625 29.2093L186.567 25.7794ZM177.26 35.5531C175.098 39.6133 174.026 44.0607 174.026 48.8592H178.026C178.026 44.6791 178.954 40.8826 180.791 37.4335L177.26 35.5531ZM174.026 48.8592C174.026 54.2531 175.739 58.7501 179.303 62.126L182.054 59.2222C179.414 56.7213 178.026 53.3416 178.026 48.8592H174.026ZM179.323 62.1444C182.954 65.4927 188.018 67.0205 194.207 67.0205V63.0205C188.643 63.0205 184.688 61.6508 182.034 59.2038L179.323 62.1444ZM194.207 67.0205C200.807 67.0205 206.311 65.142 210.51 61.2169L207.779 58.2948C204.468 61.3893 200.015 63.0205 194.207 63.0205V67.0205ZM207.544 60.9558L208.279 61.9353L211.479 59.5353L210.744 58.5558L207.544 60.9558ZM208.516 59.2721C206.957 60.7246 204.924 61.9226 202.357 62.8285L203.688 66.6004C206.672 65.5473 209.21 64.0926 211.242 62.1985L208.516 59.2721ZM202.357 62.8285C199.812 63.7265 197.06 64.1837 194.085 64.1837V68.1837C197.476 68.1837 200.683 67.6613 203.688 66.6004L202.357 62.8285Z" fill="black" fill-opacity="0.81" mask="url(#path-1-outside-1_1_29)"/>
<path d="M214 40C214 42.7614 211.761 45 209 45C206.239 45 204 42.7614 204 40C204 37.2386 206.239 35 209 35C211.761 35 214 37.2386 214 40Z" fill="#1E1E1E"/>
<path d="M213.5 40C213.5 45.326 209.845 49.5 205.5 49.5C201.155 49.5 197.5 45.326 197.5 40C197.5 34.674 201.155 30.5 205.5 30.5C209.845 30.5 213.5 34.674 213.5 40Z" stroke="black"/>
<rect x="48" y="10" width="22" height="21" fill="white"/>
<ellipse cx="58.5" cy="20" rx="8.5" ry="8" fill="#C8C8C8"/>
</svg>
